<?xml version="1.0" encoding="utf-8"?>
<!-- Generator: Adobe Illustrator 17.0.0, SVG Export Plug-In . SVG Version: 6.00 Build 0)  -->
<!DOCTYPE svg PUBLIC "-//W3C//DTD SVG 1.1//EN" "http://www.w3.org/Graphics/SVG/1.1/DTD/svg11.dtd">
<svg version="1.1" id="Layer_1" xmlns="http://www.w3.org/2000/svg" xmlns:xlink="http://www.w3.org/1999/xlink" x="0px" y="0px"
	 width="390.5px" height="87.5px" viewBox="0 0 390.5 87.5" enable-background="new 0 0 390.5 87.5" xml:space="preserve">
<g>
	<path fill="#FFFFFF" d="M75.191,8.211c-4.669,0-7.221,2.444-7.221,7.71v16.343c0,5.266,2.552,7.71,7.384,7.71
		c6.027,0,6.57-3.909,6.895-6.461c0.109-1.086,0.924-1.575,2.281-1.575c1.52,0,2.28,0.489,2.28,2.552
		c0,5.375-4.507,9.61-11.782,9.61c-6.352,0-11.619-3.203-11.619-11.836V15.921c0-8.633,5.321-11.836,11.674-11.836
		c7.275,0,11.727,4.126,11.727,9.447c0,2.063-0.76,2.498-2.28,2.498c-1.466,0-2.226-0.597-2.281-1.575
		C82.141,12.283,81.272,8.211,75.191,8.211z"/>
	<path fill="#FFFFFF" d="M100.55,41.874c0-0.163,0.054-0.272,0.109-0.435l11.076-36.106c0.326-1.086,1.575-1.575,2.824-1.575
		c1.248,0,2.497,0.543,2.823,1.575l11.076,36.106c0,0.163,0.054,0.272,0.054,0.38c0,1.086-1.52,1.955-2.823,1.955
		c-0.76,0-1.412-0.326-1.629-1.032l-2.388-8.09h-14.279l-2.389,8.09c-0.217,0.706-0.868,1.032-1.683,1.032
		C102.125,43.774,100.55,43.014,100.55,41.874z M120.585,30.906l-6.026-20.415l-6.136,20.415H120.585z"/>
	<path fill="#FFFFFF" d="M144.208,5.659c0-0.814,0.706-1.574,1.846-1.574h10.262c6.407,0,11.511,3.149,11.511,11.727v0.488
		c0,8.524-5.158,11.782-11.728,11.782h-7.33v14.062c0,1.086-1.14,1.629-2.28,1.629c-1.14,0-2.28-0.543-2.28-1.629V5.659z
		 M148.769,8.211v16.071h7.33c4.452,0,7.167-2.497,7.167-7.71v-0.652c0-5.266-2.715-7.71-7.167-7.71H148.769z"/>
	<path fill="#FFFFFF" d="M204.696,4.085c1.086,0,1.629,1.031,1.629,2.063c0,1.086-0.543,2.172-1.629,2.172h-8.741v33.825
		c0,1.086-1.14,1.629-2.28,1.629c-1.141,0-2.281-0.543-2.281-1.629V8.32h-8.795c-1.032,0-1.629-1.032-1.629-2.172
		c0-0.977,0.544-2.063,1.629-2.063H204.696z"/>
	<path fill="#FFFFFF" d="M240.807,5.659c0-1.086,1.086-1.574,2.28-1.574c1.086,0,2.28,0.488,2.28,1.574v26.605
		c0,8.633-5.212,11.836-11.89,11.836c-6.679,0-11.836-3.203-11.836-11.836V5.659c0-1.086,1.14-1.574,2.28-1.574
		c1.14,0,2.28,0.488,2.28,1.574v26.605c0,5.266,2.715,7.71,7.276,7.71c4.56,0,7.33-2.444,7.33-7.71V5.659z"/>
	<path fill="#FFFFFF" d="M263.778,5.659c0-0.814,0.652-1.52,1.629-1.574h9.936c6.57,0,12.053,2.606,12.053,10.858
		c0,6.624-3.529,9.664-8.09,10.587l8.035,15.257c0.164,0.272,0.218,0.544,0.218,0.761c0,1.194-1.411,2.334-2.715,2.334
		c-0.924,0-1.575-0.868-2.064-1.791l-8.198-15.909h-6.244v15.962c0,1.086-1.14,1.629-2.28,1.629c-1.14,0-2.28-0.543-2.28-1.629
		V5.659z M268.339,8.211v14.171h7.004c4.507,0,7.492-1.955,7.492-7.112c0-5.104-2.986-7.059-7.492-7.059H268.339z"/>
	<path fill="#FFFFFF" d="M308.684,22.002h8.47c0.978,0,1.575,0.923,1.575,1.955c0,0.868-0.489,1.846-1.575,1.846h-8.47v13.845
		h16.832c0.977,0,1.575,0.977,1.575,2.117c0,0.977-0.489,2.009-1.575,2.009h-19.329c-1.033,0-2.064-0.543-2.064-1.629V5.713
		c0-1.086,1.031-1.628,2.064-1.628h19.329c1.086,0,1.575,1.031,1.575,2.008c0,1.14-0.598,2.117-1.575,2.117h-16.832V22.002z"/>
</g>
<path fill="#FFFFFF" d="M387.387,82.049c0,1.354-1.351,2.451-3.017,2.451H6.13c-1.666,0-3.017-1.097-3.017-2.451l0,0
	c0-1.354,1.351-2.451,3.017-2.451h378.24C386.036,79.598,387.387,80.695,387.387,82.049L387.387,82.049z"/>
</svg>
