<?xml version="1.0" encoding="utf-8"?>
<!-- Generator: Adobe Illustrator 17.0.0, SVG Export Plug-In . SVG Version: 6.00 Build 0)  -->
<!DOCTYPE svg PUBLIC "-//W3C//DTD SVG 1.1//EN" "http://www.w3.org/Graphics/SVG/1.1/DTD/svg11.dtd">
<svg version="1.1" id="Layer_1" xmlns="http://www.w3.org/2000/svg" xmlns:xlink="http://www.w3.org/1999/xlink" x="0px" y="0px"
	 width="390.5px" height="87.5px" viewBox="0 0 390.5 87.5" enable-background="new 0 0 390.5 87.5" xml:space="preserve">
<path fill="#FFFFFF" d="M387.273,82.049c0,1.354-1.351,2.451-3.017,2.451H6.017C4.351,84.5,3,83.403,3,82.049l0,0
	c0-1.354,1.351-2.451,3.017-2.451h378.24C385.923,79.598,387.273,80.695,387.273,82.049L387.273,82.049z"/>
<g>
	<path fill="#FFFFFF" d="M64.624,3.755c6.571,0,11.73,3.204,11.73,11.839v16.02c0,8.635-5.159,11.839-11.73,11.839h-9.612
		c-1.249,0-2.063-0.76-2.063-1.575V5.329c0-0.814,0.814-1.575,2.063-1.575H64.624z M57.51,7.882v31.443h7.114
		c4.453,0,7.168-2.443,7.168-7.711v-16.02c0-5.268-2.715-7.711-7.168-7.711H57.51z"/>
	<path fill="#FFFFFF" d="M99.104,21.676h8.472c0.978,0,1.575,0.923,1.575,1.955c0,0.869-0.489,1.847-1.575,1.847h-8.472v13.848
		h16.835c0.978,0,1.575,0.978,1.575,2.118c0,0.978-0.489,2.009-1.575,2.009H96.606c-1.032,0-2.063-0.543-2.063-1.629V5.384
		c0-1.086,1.032-1.629,2.063-1.629h19.333c1.086,0,1.575,1.032,1.575,2.009c0,1.141-0.597,2.118-1.575,2.118H99.104V21.676z"/>
	<path fill="#FFFFFF" d="M135.377,43.452c-1.032,0-2.063-0.543-2.063-1.629V5.329c0-1.086,1.14-1.575,2.281-1.575
		c1.14,0,2.281,0.489,2.281,1.575v33.996h14.826c0.978,0,1.466,1.032,1.466,2.064s-0.489,2.063-1.466,2.063H135.377z"/>
	<path fill="#FFFFFF" d="M169.586,5.329c0-1.086,1.14-1.575,2.281-1.575c1.14,0,2.281,0.489,2.281,1.575v36.494
		c0,1.086-1.141,1.629-2.281,1.629c-1.141,0-2.281-0.543-2.281-1.629V5.329z"/>
	<path fill="#FFFFFF" d="M189.895,6.09c-0.055-0.163-0.109-0.272-0.109-0.435c0-1.141,1.575-1.901,2.77-1.901
		c0.815,0,1.467,0.326,1.684,1.032l9.559,32.258L213.3,4.786c0.271-0.706,0.869-1.032,1.63-1.032c1.303,0,2.823,0.869,2.823,1.955
		c0,0.108-0.054,0.217-0.054,0.38l-11.024,36.113c-0.38,1.032-1.575,1.575-2.878,1.575c-1.249,0-2.444-0.489-2.77-1.575
		L189.895,6.09z"/>
	<path fill="#FFFFFF" d="M237.951,21.676h8.473c0.977,0,1.574,0.923,1.574,1.955c0,0.869-0.488,1.847-1.574,1.847h-8.473v13.848
		h16.835c0.978,0,1.575,0.978,1.575,2.118c0,0.978-0.488,2.009-1.575,2.009h-19.333c-1.031,0-2.063-0.543-2.063-1.629V5.384
		c0-1.086,1.032-1.629,2.063-1.629h19.333c1.087,0,1.575,1.032,1.575,2.009c0,1.141-0.598,2.118-1.575,2.118h-16.835V21.676z"/>
	<path fill="#FFFFFF" d="M272.161,5.329c0-0.814,0.652-1.521,1.63-1.575h9.938c6.571,0,12.056,2.607,12.056,10.861
		c0,6.625-3.529,9.667-8.091,10.589l8.037,15.26c0.163,0.271,0.217,0.543,0.217,0.76c0,1.195-1.412,2.335-2.715,2.335
		c-0.924,0-1.575-0.869-2.063-1.792l-8.2-15.912h-6.246v15.966c0,1.086-1.14,1.629-2.28,1.629s-2.281-0.543-2.281-1.629V5.329z
		 M276.722,7.882v14.174h7.006c4.508,0,7.494-1.955,7.494-7.114c0-5.104-2.986-7.06-7.494-7.06H276.722z"/>
	<path fill="#FFFFFF" d="M321.196,28.084c0-0.217-0.055-0.38-0.163-0.543L309.791,6.578c-0.163-0.38-0.218-0.706-0.218-0.923
		c0-1.141,1.575-1.901,2.716-1.901c0.76,0,1.194,0.38,1.629,1.195l9.558,18.627L332.98,4.95c0.435-0.814,0.923-1.195,1.629-1.195
		c1.195,0,2.716,0.76,2.716,1.901c0,0.217-0.055,0.543-0.218,0.923l-11.241,20.962c-0.108,0.163-0.108,0.326-0.108,0.543v13.739
		c0,1.086-1.141,1.629-2.281,1.629c-1.14,0-2.28-0.543-2.28-1.629V28.084z"/>
</g>
</svg>
