<?xml version="1.0" encoding="utf-8"?>
<!-- Generator: Adobe Illustrator 17.0.0, SVG Export Plug-In . SVG Version: 6.00 Build 0)  -->
<!DOCTYPE svg PUBLIC "-//W3C//DTD SVG 1.1//EN" "http://www.w3.org/Graphics/SVG/1.1/DTD/svg11.dtd">
<svg version="1.1" id="Layer_1" xmlns="http://www.w3.org/2000/svg" xmlns:xlink="http://www.w3.org/1999/xlink" x="0px" y="0px"
	 width="300px" height="175px" viewBox="0 0 300 175" style="enable-background:new 0 0 300 175;" xml:space="preserve">
<style type="text/css">
	.st0{fill:#FFFFFF;}
</style>
<g id="oR1QLl_1_">
	<g>
		<path class="st0" d="M149.927,96.057c-20.481-0.062-36.981-16.597-36.819-37.102c0.162-20.601,16.765-36.674,37.026-36.645
			c20.286,0.029,36.745,16.644,36.688,37C186.765,79.649,170.229,96.118,149.927,96.057z M172.278,45.437
			c0.009-4.861-3.668-8.571-8.515-8.593c-4.861-0.023-8.65,3.832-8.642,8.793c0.008,4.728,3.677,8.352,8.455,8.352
			C168.521,53.99,172.269,50.306,172.278,45.437z"/>
		<path class="st0" d="M45.554,127.657c0,0.405,0,0.809,0,1.214c0,6.955-0.009,13.91,0.01,20.865
			c0.003,1.03-0.061,1.967-1.216,2.359c-1.305,0.443-2.584,0.462-3.694-0.474c-0.256-0.215-0.38-0.637-0.467-0.988
			c-0.079-0.319-0.029-0.67-0.029-1.007c-0.001-10.622,0.047-21.244-0.038-31.866c-0.018-2.288,0.995-2.847,3.172-2.782
			c1.16,0.034,2.111,0.58,2.746,1.569c0.455,0.707,0.879,1.437,1.264,2.184c3.396,6.59,6.78,13.187,10.17,19.781
			c0.203,0.395,0.429,0.778,0.644,1.166c0.085-0.015,0.17-0.03,0.255-0.045c0-0.398,0-0.795,0-1.193
			c0-6.955-0.001-13.91,0.001-20.865c0.001-1.857,0.572-2.506,2.435-2.602c0.614-0.032,1.262,0.103,1.854,0.29
			c0.692,0.22,1.113,0.739,1.101,1.522c-0.005,0.337,0.005,0.674,0.005,1.012c0,10.58,0.001,21.16,0,31.739
			c0,2.211-1.022,3.091-3.243,2.794c-1.022-0.137-1.813-0.661-2.387-1.498c-0.285-0.415-0.513-0.87-0.748-1.317
			c-3.632-6.895-7.261-13.792-10.893-20.688c-0.213-0.405-0.438-0.804-0.657-1.206C45.745,127.633,45.65,127.645,45.554,127.657z"/>
		<path class="st0" d="M156.933,135.54c0.228,0.46,0.418,0.87,0.63,1.268c2.034,3.834,4.061,7.671,6.116,11.493
			c0.464,0.863,0.797,1.693,0.163,2.595c-0.726,1.032-1.741,1.665-2.992,1.574c-0.553-0.04-1.135-0.5-1.582-0.903
			c-0.357-0.322-0.553-0.836-0.782-1.285c-2.181-4.279-4.384-8.548-6.503-12.858c-0.464-0.944-1.023-1.278-2.037-1.209
			c-1.206,0.083-2.422,0.02-3.764,0.02c0,0.61,0,1.063,0,1.515c0,4.047,0.003,8.094-0.002,12.141
			c-0.002,1.677-0.638,2.363-2.34,2.446c-0.536,0.026-1.102-0.031-1.615-0.184c-1.004-0.299-1.343-0.807-1.382-1.849
			c-0.013-0.337-0.003-0.674-0.003-1.012c0-10.455,0-20.91,0-31.365c0-0.337-0.01-0.675,0.004-1.012
			c0.055-1.302,0.637-1.954,1.968-1.95c3.961,0.013,7.923,0.04,11.881,0.174c1.114,0.038,2.248,0.363,3.316,0.723
			c3.076,1.038,4.993,3.176,5.724,6.355c0.54,2.349,0.497,4.694-0.165,7.002c-0.807,2.815-2.617,4.758-5.344,5.837
			C157.836,135.212,157.442,135.351,156.933,135.54z M146.255,131.811c2.622,0,5.15,0.155,7.651-0.041
			c2.897-0.226,4.571-2.21,4.707-5.141c0.023-0.504,0.023-1.01,0.003-1.514c-0.12-2.975-1.681-4.886-4.644-5.174
			c-2.497-0.243-5.031-0.103-7.548-0.128c-0.032,0-0.064,0.051-0.17,0.14C146.255,123.824,146.255,127.758,146.255,131.811z"/>
		<path class="st0" d="M210.443,132.647c1.293-1.249,2.552-2.043,4.06-2.396c2.699-0.633,5.361-0.491,7.953,0.461
			c2.802,1.029,4.454,3.132,5.091,5.986c0.623,2.786,0.625,5.612-0.046,8.394c-0.901,3.736-3.262,6.091-6.986,7.051
			c-2.619,0.675-5.259,0.687-7.877,0.043c-4.389-1.08-7.26-4.18-7.429-8.775c-0.236-6.392-0.246-12.808,0.005-19.199
			c0.185-4.708,3.222-7.832,7.821-8.855c2.81-0.626,5.617-0.597,8.354,0.325c3.291,1.11,5.576,3.246,6.372,6.733
			c0.148,0.647,0.148,1.336,0.15,2.005c0.001,0.323-0.079,0.69-0.246,0.961c-0.81,1.31-2.113,1.008-3.303,0.886
			c-1.105-0.113-1.634-0.738-1.76-1.814c-0.284-2.422-1.363-3.707-3.696-4.377c-1.491-0.428-2.995-0.449-4.494-0.054
			c-2.313,0.609-3.823,2.467-3.946,5.128C210.356,127.544,210.443,129.947,210.443,132.647z M222.651,141.358
			c-0.135-1.182-0.173-2.113-0.358-3.015c-0.469-2.288-1.996-3.707-4.32-3.971c-0.994-0.113-2.021-0.112-3.015-0.004
			c-2.62,0.285-4.289,2.003-4.493,4.645c-0.1,1.297-0.098,2.615,0.006,3.912c0.21,2.618,1.633,4.362,3.964,4.961
			c1.367,0.352,2.756,0.343,4.126-0.001c1.773-0.445,2.999-1.553,3.505-3.302C222.389,143.465,222.49,142.282,222.651,141.358z"/>
		<path class="st0" d="M261.084,133.848c0,2.444,0.056,4.89-0.022,7.332c-0.044,1.379-0.174,2.784-0.501,4.119
			c-0.869,3.538-3.174,5.772-6.657,6.758c-2.686,0.76-5.417,0.785-8.127,0.144c-4.286-1.014-6.926-3.974-7.481-8.347
			c-0.143-1.125-0.214-2.267-0.22-3.402c-0.024-4.509-0.028-9.018,0.002-13.527c0.008-1.176,0.073-2.366,0.269-3.524
			c0.746-4.41,3.382-7.124,7.772-8.075c2.512-0.544,5.033-0.512,7.514,0.138c3.974,1.042,6.371,3.632,7.138,7.662
			c0.219,1.15,0.279,2.341,0.3,3.516C261.115,129.043,261.084,131.446,261.084,133.848z M243.548,133.73c-0.001,0-0.001,0-0.002,0
			c0,2.444-0.003,4.889,0.002,7.333c0.001,0.547-0.002,1.099,0.057,1.642c0.288,2.673,1.726,4.414,4.152,4.942
			c1.329,0.289,2.677,0.275,4.004-0.098c1.712-0.481,2.905-1.565,3.419-3.249c0.303-0.992,0.475-2.062,0.485-3.1
			c0.049-4.931,0.031-9.862,0.011-14.793c-0.003-0.753-0.077-1.52-0.234-2.256c-0.448-2.108-1.652-3.626-3.796-4.127
			c-2.436-0.569-4.823-0.482-6.664,1.529c-0.518,0.566-0.87,1.353-1.095,2.1c-0.239,0.792-0.313,1.656-0.325,2.49
			C243.523,128.672,243.548,131.201,243.548,133.73z"/>
		<path class="st0" d="M190.395,132.532c0.272,0.176,0.429,0.301,0.605,0.388c2.739,1.355,4.146,3.593,4.409,6.604
			c0.178,2.035,0.059,4.051-0.498,6.014c-0.864,3.047-2.806,5.173-5.793,6.219c-3.491,1.223-7.048,1.263-10.537,0.012
			c-3.039-1.09-5.149-3.164-5.926-6.385c-0.175-0.725-0.204-1.505-0.176-2.254c0.042-1.123,0.513-1.616,1.615-1.727
			c0.664-0.067,1.35-0.052,2.013,0.032c1.052,0.133,1.461,0.579,1.623,1.624c0.071,0.457,0.038,0.938,0.163,1.377
			c0.385,1.348,1.302,2.264,2.574,2.773c2.115,0.846,4.286,0.874,6.427,0.126c1.994-0.697,2.82-2.334,3.024-4.291
			c0.126-1.209,0.122-2.448,0.019-3.66c-0.189-2.227-1.643-3.765-3.898-4.218c-0.739-0.149-1.504-0.176-2.257-0.25
			c-1.016-0.1-1.546-0.557-1.672-1.558c-0.057-0.453-0.047-0.933,0.037-1.381c0.162-0.861,0.69-1.294,1.567-1.384
			c0.627-0.064,1.262-0.078,1.883-0.179c1.842-0.299,2.898-1.446,3.296-3.219c0.298-1.329,0.338-2.675,0.046-4.016
			c-0.387-1.779-1.437-2.895-3.252-3.282c-1.393-0.298-2.77-0.248-4.128,0.128c-1.815,0.503-2.813,1.754-2.982,3.647
			c-0.172,1.922-0.701,2.414-2.616,2.432c-2.297,0.021-2.866-0.535-2.717-2.852c0.213-3.324,1.895-5.693,4.878-7.128
			c2.062-0.992,4.283-1.238,6.533-1.157c1.088,0.039,2.188,0.192,3.25,0.433c3.634,0.821,5.721,3.044,6.265,6.719
			c0.306,2.062,0.173,4.123-0.481,6.124C193.109,130.01,192.098,131.471,190.395,132.532z"/>
		<path class="st0" d="M117.957,145.084c0.867-2.997,1.65-5.699,2.431-8.401c1.916-6.632,3.829-13.265,5.749-19.896
			c0.483-1.669,1.2-2.096,2.897-1.699c0.485,0.113,0.973,0.29,1.404,0.537c1.077,0.617,1.298,1.217,0.929,2.422
			c-3.289,10.747-6.598,21.488-9.857,32.244c-0.415,1.369-1.301,2.014-2.59,2.243c-0.532,0.095-1.096,0.096-1.635,0.043
			c-1.512-0.149-2.53-0.838-3.01-2.413c-2.812-9.22-5.687-18.421-8.539-27.629c-0.461-1.488-0.926-2.974-1.368-4.468
			c-0.353-1.193-0.138-1.87,0.938-2.432c0.655-0.342,1.411-0.577,2.145-0.662c1.149-0.133,1.759,0.361,2.106,1.54
			c1.093,3.715,2.169,7.435,3.249,11.154c1.549,5.336,3.093,10.674,4.644,16.009C117.562,144.061,117.721,144.433,117.957,145.084z"
			/>
		<path class="st0" d="M80.167,147.564c1.717,0,3.189,0,4.661,0c3.372,0,6.744,0.014,10.115-0.009
			c0.957-0.007,1.769,0.17,2.187,1.135c0.451,1.041,0.437,2.081-0.277,2.984c-0.256,0.324-0.739,0.512-1.156,0.654
			c-0.304,0.103-0.668,0.032-1.005,0.032c-6.322,0.001-12.644,0.001-18.967,0.001c-0.169,0-0.338-0.012-0.506,0.001
			c-1.683,0.129-2.322-0.845-1.855-2.528c0.143-0.518,0.442-0.998,0.703-1.477c4.936-9.064,9.878-18.125,14.817-27.187
			c0.216-0.397,0.413-0.804,0.692-1.35c-0.538-0.03-0.937-0.072-1.337-0.073c-3.92-0.005-7.84,0.001-11.759-0.005
			c-2.149-0.003-3.233-1.955-2.159-3.858c0.291-0.517,0.719-0.826,1.298-0.897c0.374-0.046,0.757-0.035,1.136-0.035
			c5.732-0.002,11.464-0.001,17.196-0.001c0.253,0,0.506-0.009,0.759,0.004c1.65,0.085,2.247,0.953,1.704,2.542
			c-0.189,0.553-0.476,1.077-0.758,1.593c-4.922,9.024-9.85,18.044-14.774,27.067C80.667,146.553,80.473,146.961,80.167,147.564z"/>
		<path class="st0" d="M270.114,122.202c-0.001-5.037,4.182-9.271,9.117-9.225c4.888,0.045,9.101,4.306,9.08,9.184
			c-0.021,4.929-4.307,9.341-9.108,9.376C274.405,131.573,270.115,127.167,270.114,122.202z M279.134,117.129
			c-2.68,0.012-4.939,2.323-4.944,5.057c-0.006,2.794,2.293,5.187,4.98,5.185c2.679-0.002,5.058-2.434,5.04-5.152
			C284.191,119.459,281.855,117.116,279.134,117.129z"/>
		<path class="st0" d="M18.923,142.726c-1.038,0-1.996,0-2.955,0c-0.716,0-1.432,0.007-2.148-0.002
			c-1.172-0.014-1.648-0.31-1.968-1.201c-0.354-0.988-0.121-2.275,0.601-2.784c0.316-0.223,0.771-0.333,1.168-0.346
			c1.304-0.042,2.611-0.017,3.917-0.017c0.415,0,0.83,0,1.392,0c0.023-0.605,0.057-1.132,0.062-1.66
			c0.009-1.137-0.011-2.275,0.007-3.412c0.023-1.464,0.853-2.272,2.279-2.256c1.377,0.016,2.162,0.794,2.179,2.214
			c0.02,1.64,0.005,3.279,0.005,5.084c0.609,0.011,1.139,0.026,1.669,0.028c1.137,0.004,2.275-0.009,3.412,0.004
			c1.397,0.016,2.217,0.816,2.242,2.16c0.025,1.344-0.793,2.172-2.193,2.184c-1.638,0.014-3.276,0.003-5.004,0.003
			c-0.047,0.383-0.116,0.7-0.119,1.017c-0.013,1.432,0.015,2.865-0.013,4.296c-0.027,1.379-0.753,2.043-2.165,2.049
			c-1.441,0.006-2.257-0.718-2.288-2.094c-0.029-1.305-0.002-2.611-0.01-3.917C18.988,143.668,18.951,143.26,18.923,142.726z"/>
		<path class="st0" d="M163.629,50.136c-2.674,0.001-4.643-1.968-4.625-4.624c0.019-2.709,2.019-4.744,4.689-4.768
			c2.639-0.024,4.665,1.952,4.703,4.585C168.436,48.074,166.392,50.135,163.629,50.136z"/>
	</g>
</g>
</svg>
