<?xml version="1.0" encoding="utf-8"?>
<!-- Generator: Adobe Illustrator 17.0.0, SVG Export Plug-In . SVG Version: 6.00 Build 0)  -->
<!DOCTYPE svg PUBLIC "-//W3C//DTD SVG 1.1//EN" "http://www.w3.org/Graphics/SVG/1.1/DTD/svg11.dtd">
<svg version="1.1" id="Layer_1" xmlns="http://www.w3.org/2000/svg" xmlns:xlink="http://www.w3.org/1999/xlink" x="0px" y="0px"
	 width="141.73px" height="36.667px" viewBox="0 0 141.73 36.667" enable-background="new 0 0 141.73 36.667" xml:space="preserve">
<g enable-background="new    ">
	<path fill="#040B1B" d="M23.917,21.213c0-3.751-6.14-2.053-6.14-6.588c0-2.743,2.258-3.471,4.105-3.471
		c1.325,0,3.266,0.392,3.266,1.231c0,0.299-0.242,0.858-0.672,0.858c-0.429,0-0.971-0.709-2.594-0.709
		c-1.381,0-2.538,0.504-2.538,1.94c0,3.154,6.14,1.512,6.14,6.588c0,2.669-1.717,3.919-4.087,3.919
		c-2.407,0-3.956-1.307-3.956-2.108c0-0.374,0.336-0.859,0.69-0.859c0.56,0,0.989,1.512,3.191,1.512
		C22.89,23.527,23.917,22.762,23.917,21.213z"/>
	<path fill="#040B1B" d="M31.439,12.61c-1.604,0-2.481,0.84-2.481,2.65v5.617c0,1.81,0.877,2.649,2.538,2.649
		c2.071,0,2.258-1.344,2.37-2.221c0.037-0.373,0.317-0.541,0.783-0.541c0.522,0,0.784,0.168,0.784,0.877
		c0,1.848-1.549,3.304-4.05,3.304c-2.184,0-3.993-1.102-3.993-4.068V15.26c0-2.968,1.828-4.068,4.012-4.068
		c2.501,0,4.031,1.418,4.031,3.247c0,0.709-0.262,0.858-0.784,0.858c-0.504,0-0.765-0.205-0.783-0.541
		C33.828,14.01,33.53,12.61,31.439,12.61z"/>
	<path fill="#040B1B" d="M37.433,11.733c0-0.279,0.224-0.522,0.56-0.541h3.415c2.258,0,4.143,0.896,4.143,3.732
		c0,2.276-1.213,3.321-2.78,3.639l2.762,5.244c0.056,0.094,0.074,0.187,0.074,0.262c0,0.41-0.484,0.802-0.933,0.802
		c-0.317,0-0.541-0.299-0.709-0.615l-2.818-5.468h-2.146v5.486c0,0.373-0.393,0.56-0.784,0.56s-0.783-0.187-0.783-0.56V11.733z
		 M39.001,12.61v4.871h2.407c1.549,0,2.575-0.672,2.575-2.444c0-1.755-1.026-2.427-2.575-2.427H39.001z"/>
	<path fill="#040B1B" d="M47.438,20.877V15.26c0-2.968,1.755-4.068,4.013-4.068s4.03,1.101,4.03,4.068v5.617
		c0,2.967-1.772,4.068-4.03,4.068S47.438,23.844,47.438,20.877z M53.914,15.26c0-1.811-0.933-2.65-2.463-2.65
		s-2.445,0.84-2.445,2.65v5.617c0,1.81,0.915,2.649,2.445,2.649s2.463-0.84,2.463-2.649V15.26z"/>
	<path fill="#040B1B" d="M58.713,24.833c-0.354,0-0.709-0.187-0.709-0.56V11.733c0-0.373,0.392-0.541,0.784-0.541
		c0.392,0,0.783,0.168,0.783,0.541v11.683h5.095c0.336,0,0.504,0.354,0.504,0.709s-0.168,0.709-0.504,0.709H58.713z"/>
	<path fill="#040B1B" d="M67.449,24.833c-0.354,0-0.709-0.187-0.709-0.56V11.733c0-0.373,0.392-0.541,0.783-0.541
		s0.784,0.168,0.784,0.541v11.683h5.095c0.336,0,0.504,0.354,0.504,0.709s-0.168,0.709-0.504,0.709H67.449z"/>
	<path fill="#040B1B" d="M83.221,11.192c2.258,0,4.03,1.101,4.03,4.068v5.505c0,2.968-1.772,4.068-4.03,4.068h-3.304
		c-0.429,0-0.709-0.262-0.709-0.541v-12.56c0-0.279,0.28-0.541,0.709-0.541H83.221z M80.776,12.61v10.806h2.445
		c1.529,0,2.463-0.84,2.463-2.65V15.26c0-1.811-0.934-2.65-2.463-2.65H80.776z"/>
	<path fill="#040B1B" d="M89.643,20.877V15.26c0-2.968,1.755-4.068,4.013-4.068s4.03,1.101,4.03,4.068v5.617
		c0,2.967-1.772,4.068-4.03,4.068S89.643,23.844,89.643,20.877z M96.119,15.26c0-1.811-0.933-2.65-2.463-2.65
		s-2.445,0.84-2.445,2.65v5.617c0,1.81,0.915,2.649,2.445,2.649s2.463-0.84,2.463-2.649V15.26z"/>
	<path fill="#040B1B" d="M110.025,24.404c-0.112,0.355-0.542,0.542-0.971,0.542c-0.43,0-0.877-0.168-0.971-0.542l-1.604-6.158
		l-1.624,6.158c-0.093,0.355-0.522,0.542-0.951,0.542c-0.448,0-0.858-0.168-0.971-0.542l-3.695-12.409
		c-0.019-0.057-0.037-0.094-0.037-0.168c0-0.373,0.522-0.635,0.952-0.635c0.261,0,0.504,0.112,0.578,0.354l3.154,11.085l1.772-6.83
		c0.093-0.354,0.448-0.485,0.821-0.485c0.354,0,0.69,0.131,0.783,0.485l1.792,6.83l3.135-11.085
		c0.075-0.242,0.317-0.354,0.598-0.354c0.429,0,0.933,0.262,0.933,0.635c0,0.074,0,0.111-0.019,0.168L110.025,24.404z"/>
	<path fill="#040B1B" d="M121.804,24.125l-4.853-9.387v9.536c0,0.373-0.392,0.56-0.783,0.56c-0.393,0-0.784-0.187-0.784-0.56V11.733
		c0-0.392,0.373-0.541,0.784-0.541c0.56,0,0.858,0.336,1.194,0.989l4.646,9.088v-9.536c0-0.373,0.392-0.541,0.783-0.541
		c0.393,0,0.784,0.168,0.784,0.541v12.541c0,0.373-0.392,0.56-0.784,0.56C122.364,24.833,122.028,24.535,121.804,24.125z"/>
</g>
</svg>
