<?xml version="1.0" encoding="utf-8"?>
<!-- Generator: Adobe Illustrator 17.0.0, SVG Export Plug-In . SVG Version: 6.00 Build 0)  -->
<!DOCTYPE svg PUBLIC "-//W3C//DTD SVG 1.1//EN" "http://www.w3.org/Graphics/SVG/1.1/DTD/svg11.dtd">
<svg version="1.1" id="Layer_1" xmlns="http://www.w3.org/2000/svg" xmlns:xlink="http://www.w3.org/1999/xlink" x="0px" y="0px"
	 width="141.73px" height="36.667px" viewBox="0 0 141.73 36.667" enable-background="new 0 0 141.73 36.667" xml:space="preserve">
<g enable-background="new    ">
	<path fill="#F3F3F3" d="M32.606,21.213c0-3.751-6.14-2.053-6.14-6.588c0-2.743,2.258-3.471,4.105-3.471
		c1.325,0,3.266,0.392,3.266,1.231c0,0.299-0.243,0.858-0.672,0.858s-0.971-0.709-2.594-0.709c-1.381,0-2.538,0.504-2.538,1.94
		c0,3.154,6.14,1.512,6.14,6.588c0,2.669-1.717,3.919-4.087,3.919c-2.408,0-3.957-1.307-3.957-2.108c0-0.374,0.336-0.859,0.69-0.859
		c0.56,0,0.989,1.512,3.191,1.512C31.579,23.527,32.606,22.762,32.606,21.213z"/>
	<path fill="#F3F3F3" d="M40.129,12.61c-1.604,0-2.482,0.84-2.482,2.65v5.617c0,1.81,0.877,2.649,2.538,2.649
		c2.071,0,2.258-1.344,2.37-2.221c0.037-0.373,0.317-0.541,0.784-0.541c0.522,0,0.784,0.168,0.784,0.877
		c0,1.848-1.549,3.304-4.049,3.304c-2.184,0-3.994-1.102-3.994-4.068V15.26c0-2.968,1.829-4.068,4.012-4.068
		c2.5,0,4.031,1.418,4.031,3.247c0,0.709-0.261,0.858-0.784,0.858c-0.504,0-0.765-0.205-0.784-0.541
		C42.517,14.01,42.219,12.61,40.129,12.61z"/>
	<path fill="#F3F3F3" d="M46.122,11.733c0-0.279,0.224-0.522,0.56-0.541h3.415c2.258,0,4.143,0.896,4.143,3.732
		c0,2.276-1.213,3.321-2.781,3.639l2.762,5.244c0.056,0.094,0.075,0.187,0.075,0.262c0,0.41-0.485,0.802-0.933,0.802
		c-0.317,0-0.541-0.299-0.709-0.615l-2.818-5.468H47.69v5.486c0,0.373-0.392,0.56-0.784,0.56c-0.392,0-0.784-0.187-0.784-0.56
		V11.733z M47.69,12.61v4.871h2.407c1.549,0,2.575-0.672,2.575-2.444c0-1.755-1.026-2.427-2.575-2.427H47.69z"/>
	<path fill="#F3F3F3" d="M56.128,20.877V15.26c0-2.968,1.754-4.068,4.012-4.068c2.258,0,4.031,1.101,4.031,4.068v5.617
		c0,2.967-1.772,4.068-4.031,4.068C57.882,24.946,56.128,23.844,56.128,20.877z M62.603,15.26c0-1.811-0.933-2.65-2.463-2.65
		s-2.445,0.84-2.445,2.65v5.617c0,1.81,0.915,2.649,2.445,2.649s2.463-0.84,2.463-2.649V15.26z"/>
	<path fill="#F3F3F3" d="M67.402,24.833c-0.354,0-0.709-0.187-0.709-0.56V11.733c0-0.373,0.392-0.541,0.784-0.541
		c0.392,0,0.784,0.168,0.784,0.541v11.683h5.095c0.336,0,0.504,0.354,0.504,0.709s-0.168,0.709-0.504,0.709H67.402z"/>
	<path fill="#F3F3F3" d="M76.137,24.833c-0.354,0-0.709-0.187-0.709-0.56V11.733c0-0.373,0.392-0.541,0.784-0.541
		c0.392,0,0.783,0.168,0.783,0.541v11.683h5.095c0.336,0,0.504,0.354,0.504,0.709s-0.168,0.709-0.504,0.709H76.137z"/>
	<path fill="#F3F3F3" d="M94.97,11.192c0.373,0,0.56,0.354,0.56,0.709c0,0.373-0.187,0.747-0.56,0.747h-3.005v11.626
		c0,0.373-0.392,0.56-0.783,0.56c-0.393,0-0.784-0.187-0.784-0.56V12.648h-3.023c-0.354,0-0.56-0.355-0.56-0.747
		c0-0.336,0.187-0.709,0.56-0.709H94.97z"/>
	<path fill="#F3F3F3" d="M96.708,20.877V15.26c0-2.968,1.755-4.068,4.013-4.068s4.03,1.101,4.03,4.068v5.617
		c0,2.967-1.772,4.068-4.03,4.068S96.708,23.844,96.708,20.877z M103.183,15.26c0-1.811-0.933-2.65-2.463-2.65
		s-2.445,0.84-2.445,2.65v5.617c0,1.81,0.915,2.649,2.445,2.649s2.463-0.84,2.463-2.649V15.26z"/>
	<path fill="#F3F3F3" d="M107.273,11.733c0-0.279,0.242-0.541,0.635-0.541h3.526c2.202,0,3.957,1.082,3.957,4.031v0.168
		c0,2.93-1.773,4.049-4.031,4.049h-2.52v4.834c0,0.373-0.392,0.56-0.783,0.56c-0.393,0-0.784-0.187-0.784-0.56V11.733z
		 M108.841,12.61v5.524h2.52c1.53,0,2.463-0.858,2.463-2.65V15.26c0-1.811-0.933-2.65-2.463-2.65H108.841z"/>
</g>
</svg>
