<?xml version="1.0" encoding="utf-8"?>
<!-- Generator: Adobe Illustrator 17.0.0, SVG Export Plug-In . SVG Version: 6.00 Build 0)  -->
<!DOCTYPE svg PUBLIC "-//W3C//DTD SVG 1.1//EN" "http://www.w3.org/Graphics/SVG/1.1/DTD/svg11.dtd">
<svg version="1.1" id="Layer_1" xmlns="http://www.w3.org/2000/svg" xmlns:xlink="http://www.w3.org/1999/xlink" x="0px" y="0px"
	 width="56.69px" height="56.69px" viewBox="0 0 56.69 56.69" enable-background="new 0 0 56.69 56.69" xml:space="preserve">
<path fill="#F3F3F3" d="M40.718,48.406V32.722c0-3.581-1.818-6.025-4.942-6.025c-2.387,0-4.375,1.648-5,3.24
	c-0.227,0.569-0.284,1.363-0.284,2.16v16.31H22.42v-19.21c0-3.466,0.027-6.505-0.085-9.006l7.358-0.141l0.399,4.146h0.17
	c1.137-1.817,3.92-4.489,8.582-4.489c5.683,0,9.803,3.809,9.803,11.991v16.708C48.647,48.406,40.718,48.406,40.718,48.406z
	 M12.532,16.921c-2.729,0-4.49-1.931-4.49-4.317c0-2.444,1.818-4.32,4.602-4.32s4.49,1.875,4.547,4.32
	C17.191,14.991,15.428,16.921,12.532,16.921z M16.341,48.264H8.27V20.05h8.072L16.341,48.264L16.341,48.264z"/>
</svg>
