<?xml version="1.0" encoding="utf-8"?>
<!-- Generator: Adobe Illustrator 17.0.0, SVG Export Plug-In . SVG Version: 6.00 Build 0)  -->
<!DOCTYPE svg PUBLIC "-//W3C//DTD SVG 1.1//EN" "http://www.w3.org/Graphics/SVG/1.1/DTD/svg11.dtd">
<svg version="1.1" id="Layer_1" xmlns="http://www.w3.org/2000/svg" xmlns:xlink="http://www.w3.org/1999/xlink" x="0px" y="0px"
	 width="56.69px" height="56.69px" viewBox="0 0 56.69 56.69" enable-background="new 0 0 56.69 56.69" xml:space="preserve">
<g>
	<g>
		<path fill="none" stroke="#F3F3F3" stroke-width="2" stroke-linecap="round" stroke-linejoin="round" stroke-miterlimit="10" d="
			M42.232,14.324h-3.854c-0.709,0-1.284,0.575-1.284,1.284v3.853c0,0.71,0.575,1.284,1.284,1.284h3.854
			c0.708,0,1.284-0.574,1.284-1.284v-3.853C43.516,14.899,42.94,14.324,42.232,14.324z"/>
	</g>
	
		<line fill="none" stroke="#F3F3F3" stroke-width="2" stroke-linejoin="round" stroke-miterlimit="10" x1="34" y1="24" x2="48" y2="24"/>
	
		<line fill="none" stroke="#F3F3F3" stroke-width="2" stroke-linejoin="round" stroke-miterlimit="10" x1="9" y1="24" x2="22" y2="24"/>
	<path fill="none" stroke="#F3F3F3" stroke-width="2" stroke-linecap="round" stroke-linejoin="round" stroke-miterlimit="10" d="
		M48,40c0,4.4-3.6,8-8,8H16c-4.4,0-8-3.6-8-8V17c0-4.4,3.6-8,8-8h24c4.4,0,8,3.6,8,8V40z"/>
	
		<circle fill="none" stroke="#F3F3F3" stroke-width="2" stroke-linecap="round" stroke-linejoin="round" stroke-miterlimit="10" cx="28" cy="33" r="6"/>
	
		<circle fill="none" stroke="#F3F3F3" stroke-width="2" stroke-linecap="round" stroke-linejoin="round" stroke-miterlimit="10" cx="28" cy="33" r="11"/>
</g>
</svg>
