<?xml version="1.0" encoding="utf-8"?>
<!-- Generator: Adobe Illustrator 17.0.0, SVG Export Plug-In . SVG Version: 6.00 Build 0)  -->
<!DOCTYPE svg PUBLIC "-//W3C//DTD SVG 1.1//EN" "http://www.w3.org/Graphics/SVG/1.1/DTD/svg11.dtd">
<svg version="1.1" id="Layer_1" xmlns="http://www.w3.org/2000/svg" xmlns:xlink="http://www.w3.org/1999/xlink" x="0px" y="0px"
	 width="56.69px" height="56.69px" viewBox="0 0 56.69 56.69" enable-background="new 0 0 56.69 56.69" xml:space="preserve">
<path fill="#F3F3F3" d="M44.673,16.617c0,0,3.379-0.267,4.735-1.279c0,0-0.325,1.165-4.391,4.851c0,0,1.369,19.889-19.491,24.76
	c0,0-10.579,2.26-18.245-3.505c0,0,8.024,1.428,12.54-3.566c0,0-5.824,0.06-7.666-5.883c0,0,2.199,0.475,3.506-0.119
	c0,0-6.597-1.368-6.478-8.559c0,0,1.783,1.308,3.387,1.07c0,0-5.942-5.053-2.258-11.352c0,0,7.962,9.415,17.83,8.856
	c-0.172-0.674-0.265-1.38-0.265-2.11c0-4.681,3.797-8.478,8.48-8.478c2.366,0,4.506,0.97,6.045,2.533
	c1.128,0.019,3.448-0.182,5.765-1.841C48.168,11.996,48.301,13.81,44.673,16.617z"/>
</svg>
