<?xml version="1.0" encoding="utf-8"?>
<!-- Generator: Adobe Illustrator 17.0.0, SVG Export Plug-In . SVG Version: 6.00 Build 0)  -->
<!DOCTYPE svg PUBLIC "-//W3C//DTD SVG 1.1//EN" "http://www.w3.org/Graphics/SVG/1.1/DTD/svg11.dtd">
<svg version="1.1" id="Layer_1" xmlns="http://www.w3.org/2000/svg" xmlns:xlink="http://www.w3.org/1999/xlink" x="0px" y="0px"
	 width="56.69px" height="56.69px" viewBox="0 0 56.69 56.69" enable-background="new 0 0 56.69 56.69" xml:space="preserve">
<g>
	<path fill="#F3F3F3" d="M28.345,42.845c5.514,0,10-4.486,10-10s-4.486-10-10-10s-10,4.486-10,10S22.831,42.845,28.345,42.845z
		 M28.345,25.845c3.86,0,7,3.141,7,7s-3.14,7-7,7s-7-3.141-7-7S24.485,25.845,28.345,25.845z"/>
	<path fill="#F3F3F3" d="M28.345,37.845c2.757,0,5-2.243,5-5s-2.243-5-5-5s-5,2.243-5,5S25.588,37.845,28.345,37.845z"/>
	<path fill="#F3F3F3" d="M40.345,32.845c0,6.617-5.383,12-12,12s-12-5.383-12-12c0-3.075,1.172-5.874,3.081-8H8.345v15
		c0,4.4,3.6,8,8,8h24c4.4,0,8-3.6,8-8v-15H37.264C39.173,26.971,40.345,29.77,40.345,32.845z"/>
	<path fill="#F3F3F3" d="M42.577,15.169h-3.854c-0.157,0-0.284,0.128-0.284,0.284v3.853c0,0.156,0.127,0.284,0.284,0.284h3.854
		c0.156,0,0.284-0.128,0.284-0.284v-3.853C42.861,15.297,42.733,15.169,42.577,15.169z"/>
	<path fill="#F3F3F3" d="M40.345,8.845h-24c-4.4,0-8,3.6-8,8v6h13.381c1.899-1.261,4.173-2,6.619-2s4.72,0.739,6.619,2h13.381v-6
		C48.345,12.445,44.745,8.845,40.345,8.845z M44.861,19.306c0,1.26-1.024,2.284-2.284,2.284h-3.854
		c-1.259,0-2.284-1.024-2.284-2.284v-3.853c0-1.26,1.025-2.284,2.284-2.284h3.854c1.259,0,2.284,1.024,2.284,2.284V19.306z"/>
</g>
</svg>
